<svg version="1.1" id="Layer_1" xmlns="http://www.w3.org/2000/svg" xmlns:xlink="http://www.w3.org/1999/xlink" x="0px" y="0px"
	 width="100%" viewBox="0 0 512 512" enable-background="new 0 0 512 512" xml:space="preserve">
<path fill="#000000" opacity="1.000000" stroke="none" 
	d="
M513.000000,42.000000 
	C513.000000,198.954086 513.000000,355.908173 513.000000,512.931152 
	C342.429169,512.931152 171.858307,512.931152 1.000000,512.931152 
	C1.000000,356.308533 1.000000,199.616913 1.468657,42.463284 
	C36.650997,42.001366 71.364708,41.987530 106.078300,42.044540 
	C107.732697,42.047256 109.386063,42.677032 110.631195,43.009953 
	C109.889229,43.007740 109.539703,42.944534 109.225052,43.022335 
	C73.103378,51.953690 45.173767,85.164223 45.074181,122.400063 
	C44.847481,207.164932 44.935608,291.930908 45.035370,376.696259 
	C45.071449,407.352661 58.929073,430.781525 84.002983,447.642212 
	C97.495392,456.715088 112.626137,461.112701 129.065430,461.041351 
	C170.694748,460.860687 212.324982,460.893280 254.357651,460.904419 
	C255.842697,460.922638 256.924927,460.876892 258.470215,460.904785 
	C298.757446,460.983582 338.582184,460.861664 378.405579,461.039062 
	C404.414642,461.154938 425.863708,451.242401 443.056732,432.116974 
	C452.579102,421.524384 459.313995,409.264099 461.964813,394.619995 
	C462.723755,391.212524 463.826477,388.183350 463.851807,385.145172 
	C463.991211,368.429047 463.867218,351.710663 463.906006,334.529785 
	C463.932037,307.044861 463.885651,280.023224 463.904236,252.600571 
	C463.926239,251.117950 463.883331,250.036301 463.909180,248.493378 
	C463.979095,205.389145 463.982117,162.746170 463.974426,120.103203 
	C463.974091,118.273170 464.078064,116.410637 463.791077,114.618057 
	C459.960510,90.694862 448.656799,71.115189 429.061005,56.768448 
	C419.793182,49.983150 409.644592,44.614609 398.149719,42.619049 
	C400.160614,42.149326 401.981781,42.011589 403.803040,42.010933 
	C440.202026,41.997814 476.601013,42.000504 513.000000,42.000000 
z"/>
<path fill="#000000" opacity="1.000000" stroke="none" 
	d="
M1.000000,41.000000 
	C1.000000,27.676521 1.000000,14.353041 1.000000,1.045841 
	C171.666672,1.045841 342.333344,1.045841 513.000000,1.045841 
	C513.000000,14.082015 513.000000,27.072350 512.531372,40.530647 
	C499.108093,40.998535 486.153442,40.978573 473.198883,41.002552 
	C447.128326,41.050808 421.057800,41.123001 394.523468,41.120041 
	C380.440643,41.036495 366.821564,40.990288 353.202576,41.005573 
	C321.483429,41.041168 289.764282,41.106369 257.639038,41.095463 
	C256.140198,41.074062 255.047470,41.116776 253.493439,41.090656 
	C239.909988,41.014503 226.787766,40.984993 213.665619,41.004223 
	C180.447861,41.052895 147.230133,41.123459 113.549118,41.104767 
	C75.723892,41.016190 38.361946,41.008095 1.000000,41.000000 
z"/>
<path fill="#E98E0A" opacity="1.000000" stroke="none" 
	d="
M394.987274,41.185318 
	C421.057800,41.123001 447.128326,41.050808 473.198883,41.002552 
	C486.153442,40.978573 499.108093,40.998535 512.531372,40.999306 
	C513.000000,41.000000 513.000000,41.500000 513.000000,41.750000 
	C476.601013,42.000504 440.202026,41.997814 403.803040,42.010933 
	C401.981781,42.011589 400.160614,42.149326 397.816223,42.622208 
	C396.524475,42.409229 395.755859,41.797276 394.987274,41.185318 
z"/>
<path fill="#E98E0A" opacity="1.000000" stroke="none" 
	d="
M1.000000,41.250000 
	C38.361946,41.008095 75.723892,41.016190 113.467476,41.421677 
	C112.912712,42.217640 111.976311,42.616215 111.039909,43.014790 
	C109.386063,42.677032 107.732697,42.047256 106.078300,42.044540 
	C71.364708,41.987530 36.650997,42.001366 1.468657,42.000645 
	C1.000000,42.000000 1.000000,41.500000 1.000000,41.250000 
z"/>
<path fill="#FA980B" opacity="1.000000" stroke="none" 
	d="
M110.631195,43.009953 
	C111.976311,42.616215 112.912712,42.217640 113.930756,41.502159 
	C147.230133,41.123459 180.447861,41.052895 213.665619,41.004223 
	C226.787766,40.984993 239.909988,41.014503 253.507217,41.548683 
	C253.988174,108.881630 253.994858,175.687714 253.998795,242.493805 
	C253.999176,248.991516 253.991379,248.998703 247.483475,248.998886 
	C182.509979,249.000717 117.536438,248.981415 52.563095,249.082352 
	C50.436378,249.085663 48.311554,250.305634 46.185848,250.958450 
	C48.283852,251.638962 50.380905,252.910797 52.479992,252.914169 
	C117.786530,253.019012 183.093292,253.021194 248.399902,252.944321 
	C252.092468,252.939972 254.110153,253.279282 254.099182,257.923950 
	C253.939240,325.562500 253.969788,393.201538 253.954849,460.840454 
	C212.324982,460.893280 170.694748,460.860687 129.065430,461.041351 
	C112.626137,461.112701 97.495392,456.715088 84.002983,447.642212 
	C58.929073,430.781525 45.071449,407.352661 45.035370,376.696259 
	C44.935608,291.930908 44.847481,207.164932 45.074181,122.400063 
	C45.173767,85.164223 73.103378,51.953690 109.225052,43.022335 
	C109.539703,42.944534 109.889229,43.007740 110.631195,43.009953 
M143.302078,370.695221 
	C143.498169,370.390442 143.694260,370.085632 143.903595,369.902985 
	C143.903595,369.902985 143.781311,369.890869 144.302094,369.695343 
	C144.498154,369.390594 144.694229,369.085846 144.903488,368.902985 
	C144.903488,368.902985 144.781494,368.890778 145.302231,368.695526 
	C145.498245,368.390869 145.694260,368.086243 145.878189,367.869263 
	C145.878189,367.869263 145.800491,367.826935 146.677124,367.927704 
	C147.850754,367.894714 149.024384,367.861694 150.120728,367.871307 
	C150.120728,367.871307 150.107727,367.784027 150.303879,368.303833 
	C150.608231,368.499817 150.912582,368.695831 151.095734,368.905060 
	C151.095734,368.905060 151.107513,368.783691 151.303925,369.303558 
	C151.608261,369.499756 151.912582,369.695953 152.095459,369.905212 
	C152.095459,369.905212 152.107315,369.783661 152.303818,370.303497 
	C152.608078,370.499817 152.912354,370.696167 153.095169,370.905548 
	C153.095169,370.905548 153.106964,370.783966 153.303680,371.303619 
	C153.607834,371.500061 153.911987,371.696503 154.094742,371.905914 
	C154.094742,371.905914 154.106583,371.784393 154.303452,372.303894 
	C154.607544,372.500336 154.911621,372.696777 155.094467,372.906219 
	C155.094467,372.906219 155.106155,372.784821 155.303284,373.304169 
	C155.607330,373.500610 155.911392,373.697052 156.094177,373.906372 
	C156.094177,373.906372 156.105957,373.784973 156.303146,374.304260 
	C156.607224,374.500702 156.911285,374.697144 157.094147,374.906403 
	C157.094147,374.906403 157.105911,374.785065 157.303192,375.304291 
	C157.607239,375.500732 157.911285,375.697174 158.094131,375.906433 
	C158.094131,375.906433 158.105896,375.785095 158.303177,376.304352 
	C158.607224,376.500763 158.911285,376.697174 159.094131,376.906433 
	C159.094131,376.906433 159.105896,376.785126 159.303177,377.304352 
	C159.607224,377.500793 159.911270,377.697235 160.094086,377.906494 
	C160.094086,377.906494 160.105865,377.785156 160.303146,378.304382 
	C160.607178,378.500854 160.911209,378.697327 161.093979,378.906647 
	C161.093979,378.906647 161.105728,378.785248 161.303101,379.304413 
	C161.607086,379.500946 161.911072,379.697479 162.093796,379.906830 
	C162.093796,379.906830 162.105515,379.785431 162.302933,380.304596 
	C162.606918,380.501129 162.910904,380.697662 163.093613,380.907013 
	C163.093613,380.907013 163.105286,380.785583 163.302872,381.304688 
	C163.606857,381.501251 163.910828,381.697784 164.093475,381.907043 
	C164.093475,381.907043 164.105164,381.785614 164.302902,382.304718 
	C164.606995,382.501190 164.911072,382.697632 165.093658,382.906860 
	C165.093658,382.906860 165.105362,382.785248 165.303284,383.304443 
	C165.607651,383.500702 165.912018,383.696930 166.094406,383.906158 
	C166.094406,383.906158 166.106110,383.784058 166.303925,384.303711 
	C166.608597,384.499817 166.913284,384.695892 167.094162,384.903992 
	C167.094162,384.903992 167.106979,384.780243 167.287216,385.386749 
	C168.202652,385.278107 169.118073,385.169495 170.006104,385.002441 
	C170.006104,385.002441 170.066513,385.025116 170.477997,384.806854 
	C170.734482,384.614594 170.916794,384.367615 171.005142,384.004974 
	C171.005142,384.004974 171.066040,384.024811 171.477722,383.806732 
	C171.734375,383.614563 171.916733,383.367523 172.005066,383.004883 
	C172.005066,383.004883 172.065811,383.024628 172.477585,382.806671 
	C172.734283,382.614532 172.916656,382.367493 173.005051,382.004852 
	C173.005051,382.004852 173.065765,382.024506 173.477615,381.806671 
	C173.734375,381.614532 173.916718,381.367493 174.005066,381.004822 
	C174.005066,381.004822 174.065765,381.024475 174.477600,380.806671 
	C174.734375,380.614594 174.916748,380.367554 175.005066,380.004852 
	C175.005066,380.004852 175.065765,380.024506 175.477585,379.806641 
	C175.734268,379.614502 175.916672,379.367523 176.004974,379.004883 
	C176.004974,379.004883 176.065750,379.024658 176.477554,378.806671 
	C176.734253,378.614532 176.916748,378.367554 177.005051,378.004913 
	C177.005051,378.004913 177.065872,378.024841 177.477585,377.806763 
	C177.734192,377.614563 177.916779,377.367645 178.001373,377.006195 
	C178.001373,377.006195 178.058762,377.035431 178.486435,377.016510 
	C178.692947,376.676941 178.899475,376.337372 179.308868,375.253937 
	C178.431046,373.985321 177.703323,372.573059 176.649994,371.472382 
	C171.445236,366.033600 166.154358,360.677216 160.945221,354.473755 
	C160.918381,353.927856 160.891556,353.381958 160.897964,352.916443 
	C160.897964,352.916443 160.811523,352.926331 161.316971,352.706665 
	C161.519974,352.408264 161.722961,352.109894 161.934952,351.934479 
	C161.934952,351.934479 161.811920,351.926392 162.317169,351.706512 
	C162.520050,351.408142 162.722931,351.109741 162.934814,350.934357 
	C162.934814,350.934357 162.811722,350.926239 163.317032,350.706329 
	C163.519867,350.407837 163.722687,350.109344 163.934631,349.934082 
	C163.934631,349.934082 163.811340,349.926025 164.316849,349.706177 
	C164.519638,349.407593 164.722427,349.109009 164.934341,348.933807 
	C164.934341,348.933807 164.810867,348.925720 165.316589,348.706116 
	C165.519409,348.407440 165.722214,348.108765 165.934189,347.933716 
	C165.934189,347.933716 165.810486,347.925568 166.316345,347.705963 
	C166.519180,347.407257 166.722031,347.108551 166.934052,346.933533 
	C166.934052,346.933533 166.810257,346.925354 167.316223,346.705933 
	C167.519104,346.407196 167.721970,346.108459 167.934006,345.933502 
	C167.934006,345.933502 167.810150,345.925293 168.316132,345.705902 
	C168.519028,345.407166 168.721924,345.108429 168.933990,344.933502 
	C168.933990,344.933502 168.810120,344.925262 169.316147,344.705902 
	C169.519028,344.407135 169.721893,344.108368 169.933945,343.933441 
	C169.933945,343.933441 169.810043,343.925232 170.316132,343.705872 
	C170.518967,343.407074 170.721786,343.108246 170.933792,342.933350 
	C170.933792,342.933350 170.809830,342.925110 171.316025,342.705780 
	C171.518799,342.406860 171.721558,342.107971 171.933563,341.933044 
	C171.933563,341.933044 171.809494,341.924835 172.315826,341.705627 
	C172.518524,341.406586 172.721222,341.107574 172.933212,340.932709 
	C172.933212,340.932709 172.808975,340.924469 173.315567,340.705475 
	C173.518234,340.406342 173.720901,340.107239 173.932877,339.932373 
	C173.932877,339.932373 173.808517,339.924103 174.315338,339.705322 
	C174.517990,339.406128 174.720642,339.106934 174.932709,338.932159 
	C174.932709,338.932159 174.808167,338.923859 175.315140,338.705170 
	C175.517776,338.405884 175.720413,338.106598 175.932571,337.931946 
	C175.932571,337.931946 175.807861,337.923737 176.314972,337.704956 
	C176.517624,337.405518 176.720261,337.106110 176.932526,336.931793 
	C176.932526,336.931793 176.807343,336.923615 177.314636,336.704712 
	C177.517349,336.405151 177.720062,336.105591 177.932526,335.931763 
	C177.932526,335.931763 177.806671,335.923706 178.314941,335.703522 
	C178.517075,335.402466 178.719193,335.101410 178.901260,334.910522 
	C178.901260,334.910522 178.797653,334.868042 179.136093,334.844849 
	C179.507614,334.698212 179.597260,334.440918 179.489975,333.324097 
	C176.013794,329.589569 172.537613,325.855042 167.910522,320.884094 
	C161.009521,328.445557 154.562271,335.509827 147.393616,343.364532 
	C140.409439,336.001312 133.927475,329.167542 127.769691,322.675537 
	C123.899437,326.524963 120.309723,330.095367 115.953453,334.428192 
	C122.666847,340.847839 129.482971,347.365723 136.666824,354.235260 
	C130.701248,360.157867 124.884270,365.820953 119.230461,371.642517 
	C118.125999,372.779694 117.654686,374.531769 116.672653,376.336823 
	C117.094566,376.570312 117.516472,376.803772 117.997810,377.007935 
	C117.997810,377.007935 117.973778,377.069702 118.192146,377.479797 
	C118.383942,377.735504 118.630165,377.917633 118.993408,378.006897 
	C118.993408,378.006897 118.974083,378.069458 119.192162,378.479706 
	C119.383873,378.735504 119.630119,378.917572 119.993484,379.006805 
	C119.993484,379.006805 119.974319,379.069366 120.192230,379.479706 
	C120.383949,379.735504 120.630188,379.917542 120.993484,380.006775 
	C120.993484,380.006775 120.974396,380.069305 121.192223,380.479675 
	C121.383919,380.735504 121.630173,380.917542 121.993500,381.006805 
	C121.993500,381.006805 121.974403,381.069305 122.192215,381.479675 
	C122.383942,381.735443 122.630180,381.917511 122.993507,382.006775 
	C122.993507,382.006775 122.974388,382.069305 123.192169,382.479675 
	C123.383873,382.735474 123.630104,382.917542 123.993477,383.006775 
	C123.993477,383.006775 123.974312,383.069366 124.192131,383.479706 
	C124.383812,383.735474 124.629974,383.917603 124.993385,384.006958 
	C124.993385,384.006958 124.974152,384.069672 125.191986,384.479828 
	C125.383598,384.735535 125.629639,384.917694 125.992401,385.003876 
	C125.992401,385.003876 125.965164,385.064240 126.073509,385.658966 
	C127.012886,385.365753 127.952263,385.072540 128.905060,384.902924 
	C128.905060,384.902924 128.781250,384.891174 129.301941,384.695404 
	C129.498505,384.390930 129.695084,384.086456 129.904663,383.904083 
	C129.904663,383.904083 129.782486,383.892029 130.302719,383.695862 
	C130.499191,383.391510 130.695663,383.087158 130.905106,382.904541 
	C130.905106,382.904541 130.783279,382.892609 131.303223,382.696014 
	C131.499527,382.391632 131.695816,382.087250 131.905136,381.904510 
	C131.905136,381.904510 131.783371,381.892609 132.303329,381.696045 
	C132.499527,381.391632 132.695740,381.087189 132.904968,380.904419 
	C132.904968,380.904419 132.783249,380.892487 133.303223,380.695984 
	C133.499435,380.391541 133.695648,380.087128 133.904922,379.904327 
	C133.904922,379.904327 133.783127,379.892395 134.303146,379.695953 
	C134.499374,379.391510 134.695587,379.087067 134.904907,378.904327 
	C134.904907,378.904327 134.783081,378.892395 135.303101,378.695892 
	C135.499313,378.391418 135.695511,378.086945 135.904846,377.904236 
	C135.904846,377.904236 135.782990,377.892303 136.303055,377.695862 
	C136.499222,377.391357 136.695389,377.086823 136.904617,376.904083 
	C136.904617,376.904083 136.782776,376.892090 137.302979,376.695709 
	C137.499069,376.391113 137.695160,376.086517 137.904373,375.903778 
	C137.904373,375.903778 137.782379,375.891785 138.302765,375.695557 
	C138.498795,375.390839 138.694824,375.086151 138.904099,374.903473 
	C138.904099,374.903473 138.781937,374.891510 139.302505,374.695374 
	C139.498535,374.390625 139.694580,374.085846 139.903870,373.903290 
	C139.903870,373.903290 139.781525,373.891235 140.302261,373.695312 
	C140.498322,373.390503 140.694366,373.085663 140.903717,372.903076 
	C140.903717,372.903076 140.781342,372.891022 141.302155,372.695251 
	C141.498215,372.390381 141.694275,372.085510 141.903702,371.902985 
	C141.903702,371.902985 141.781250,371.890961 142.302063,371.695160 
	C142.498154,371.390320 142.694244,371.085510 142.903641,370.902954 
	C142.903641,370.902954 142.781235,370.890930 143.302078,370.695221 
M111.675797,158.301239 
	C121.198029,158.518158 130.720261,158.735077 140.530472,159.718536 
	C140.530472,169.098907 140.530472,178.479279 140.530472,187.991547 
	C144.878128,187.991547 148.048813,187.820938 151.193314,188.035080 
	C155.057251,188.298203 156.520203,186.832382 156.458481,182.872757 
	C156.334244,174.902664 156.633179,166.925995 157.727448,158.978104 
	C165.756241,158.986221 173.785645,159.044693 181.813141,158.946182 
	C182.969177,158.931992 184.115952,158.162048 185.740997,156.948090 
	C185.740997,152.008881 185.740997,147.069656 185.740997,141.525543 
	C175.978760,141.525543 166.441254,141.525543 156.304031,141.525543 
	C156.304031,131.404846 156.304031,121.875618 156.304031,112.308372 
	C150.772064,112.308372 145.867340,112.308372 140.370300,112.308372 
	C140.370300,122.151688 140.370300,131.699814 140.370300,141.646408 
	C130.363754,141.646408 120.946976,141.646408 110.726585,141.646408 
	C111.081703,147.313889 111.408409,152.527863 111.675797,158.301239 
z"/>
<path fill="#FA980B" opacity="1.000000" stroke="none" 
	d="
M394.523468,41.120041 
	C395.755859,41.797276 396.524475,42.409229 397.626587,43.018028 
	C409.644592,44.614609 419.793182,49.983150 429.061005,56.768448 
	C448.656799,71.115189 459.960510,90.694862 463.791077,114.618057 
	C464.078064,116.410637 463.974091,118.273170 463.974426,120.103203 
	C463.982117,162.746170 463.979095,205.389145 463.451172,248.507141 
	C396.466736,248.988083 330.009064,248.970917 263.551575,249.060577 
	C259.792877,249.065643 257.892822,248.597046 257.903320,244.029556 
	C258.058960,176.406494 258.030212,108.782982 258.045135,41.159576 
	C289.764282,41.106369 321.483429,41.041168 353.202576,41.005573 
	C366.821564,40.990288 380.440643,41.036495 394.523468,41.120041 
M323.462219,158.140274 
	C324.384064,158.424393 325.305420,158.954636 326.227875,158.956619 
	C348.871246,159.005295 371.514923,159.024292 394.158020,158.930679 
	C395.428986,158.925446 396.695770,157.910278 397.985870,156.509369 
	C397.985870,151.697800 397.985870,146.886246 397.985870,141.791412 
	C372.928986,141.791412 348.194977,141.791412 323.034912,141.791412 
	C323.034912,147.123032 323.034912,152.244720 323.462219,158.140274 
z"/>
<path fill="#E3E3E3" opacity="1.000000" stroke="none" 
	d="
M463.839294,253.001556 
	C463.885651,280.023224 463.932037,307.044861 463.447937,334.531799 
	C441.700897,334.992188 420.484314,334.987305 399.204712,334.546509 
	C399.056030,332.335297 398.970459,330.559998 398.879578,328.675354 
	C373.714844,328.675354 349.021790,328.675354 324.169983,328.675354 
	C324.006531,331.030731 323.869415,333.006531 323.280396,334.986328 
	C301.274414,334.990936 279.720276,334.991516 258.102112,334.527802 
	C258.038086,307.154938 258.038086,280.246338 258.038086,253.001556 
	C327.025085,253.001556 395.432190,253.001556 463.839294,253.001556 
z"/>
<path fill="#D6D6D6" opacity="1.000000" stroke="none" 
	d="
M461.811188,394.994141 
	C459.313995,409.264099 452.579102,421.524384 443.056732,432.116974 
	C425.863708,451.242401 404.414642,461.154938 378.405579,461.039062 
	C338.582184,460.861664 298.757446,460.983582 258.470825,460.447632 
	C258.061035,438.275940 258.113678,416.635010 258.624512,394.995850 
	C326.658905,394.996429 394.235046,394.995270 461.811188,394.994141 
z"/>
<path fill="#DCDCDC" opacity="1.000000" stroke="none" 
	d="
M461.964813,394.619995 
	C394.235046,394.995270 326.658905,394.996429 258.559937,394.531433 
	C258.080139,374.374207 258.123169,354.683167 258.166168,334.992096 
	C279.720276,334.991516 301.274414,334.990936 323.355377,335.439362 
	C323.882233,338.670471 323.882233,341.452545 323.882233,344.955811 
	C326.420685,344.955811 328.360718,344.955780 330.300751,344.955780 
	C349.744446,344.955780 369.188171,344.955841 388.631866,344.955841 
	C398.617157,344.955872 398.617157,344.955841 399.267761,334.982422 
	C420.484314,334.987305 441.700897,334.992188 463.375549,334.995056 
	C463.867218,351.710663 463.991211,368.429047 463.851807,385.145172 
	C463.826477,388.183350 462.723755,391.212524 461.964813,394.619995 
M332.571838,362.304169 
	C329.817902,362.304169 327.063965,362.304169 323.932526,362.304169 
	C323.932526,367.119507 324.094849,371.107239 323.881287,375.074768 
	C323.709656,378.263672 325.120422,379.091492 328.021057,379.004517 
	C333.009888,378.854919 338.006470,378.965271 342.999817,378.965302 
	C360.143616,378.965332 377.287445,378.981842 394.431152,378.941742 
	C396.448120,378.937042 399.078094,379.654266 399.060547,376.125732 
	C399.038483,371.697540 399.055206,367.269135 399.055206,362.304779 
	C376.752686,362.304779 355.153656,362.304779 332.571838,362.304169 
z"/>
<path fill="#C57809" opacity="1.000000" stroke="none" 
	d="
M258.102112,334.527802 
	C258.123169,354.683167 258.080139,374.374207 258.101715,394.529663 
	C258.113678,416.635010 258.061035,438.275940 258.007812,460.374023 
	C256.924927,460.876892 255.842697,460.922638 254.357651,460.904419 
	C253.969788,393.201538 253.939240,325.562500 254.099182,257.923950 
	C254.110153,253.279282 252.092468,252.939972 248.399902,252.944321 
	C183.093292,253.021194 117.786530,253.019012 52.479992,252.914169 
	C50.380905,252.910797 48.283852,251.638962 46.185848,250.958450 
	C48.311554,250.305634 50.436378,249.085663 52.563095,249.082352 
	C117.536438,248.981415 182.509979,249.000717 247.483475,248.998886 
	C253.991379,248.998703 253.999176,248.991516 253.998795,242.493805 
	C253.994858,175.687714 253.988174,108.881630 253.968506,41.617516 
	C255.047470,41.116776 256.140198,41.074062 257.639038,41.095463 
	C258.030212,108.782982 258.058960,176.406494 257.903320,244.029556 
	C257.892822,248.597046 259.792877,249.065643 263.551575,249.060577 
	C330.009064,248.970917 396.466736,248.988083 463.382385,248.968414 
	C463.883331,250.036301 463.926239,251.117950 463.904236,252.600571 
	C395.432190,253.001556 327.025085,253.001556 258.038086,253.001556 
	C258.038086,280.246338 258.038086,307.154938 258.102112,334.527802 
z"/>
<path fill="#FEFCF9" opacity="1.000000" stroke="none" 
	d="
M116.891357,376.000244 
	C117.654686,374.531769 118.125999,372.779694 119.230461,371.642517 
	C124.884270,365.820953 130.701248,360.157867 136.666824,354.235260 
	C129.482971,347.365723 122.666847,340.847839 115.953453,334.428192 
	C120.309723,330.095367 123.899437,326.524963 127.769691,322.675537 
	C133.927475,329.167542 140.409439,336.001312 147.393616,343.364532 
	C154.562271,335.509827 161.009521,328.445557 167.910522,320.884094 
	C172.537613,325.855042 176.013794,329.589569 179.232544,333.849182 
	C178.915955,334.538818 178.856812,334.703430 178.797653,334.868042 
	C178.797653,334.868042 178.901260,334.910522 178.635681,334.937866 
	C178.182281,335.284698 177.994476,335.604187 177.806671,335.923706 
	C177.806671,335.923706 177.932526,335.931763 177.651489,335.948914 
	C177.182755,336.285217 176.995041,336.604431 176.807343,336.923615 
	C176.807343,336.923615 176.932526,336.931793 176.651520,336.948975 
	C176.182983,337.285370 175.995422,337.604553 175.807861,337.923737 
	C175.807861,337.923737 175.932571,337.931946 175.651611,337.949158 
	C175.183151,338.285522 174.995667,338.604706 174.808167,338.923859 
	C174.808167,338.923859 174.932709,338.932159 174.651764,338.949402 
	C174.183365,339.285767 173.995941,339.604919 173.808502,339.924103 
	C173.808517,339.924103 173.932877,339.932373 173.652008,339.949707 
	C173.183762,340.286163 172.996368,340.605316 172.808990,340.924469 
	C172.808975,340.924469 172.933212,340.932709 172.652374,340.950073 
	C172.184204,341.286560 171.996841,341.605713 171.809494,341.924835 
	C171.809494,341.924835 171.933563,341.933044 171.652771,341.950439 
	C171.184586,342.286926 170.997223,342.606018 170.809845,342.925110 
	C170.809830,342.925110 170.933792,342.933350 170.653015,342.950684 
	C170.184830,343.287079 169.997437,343.606171 169.810043,343.925232 
	C169.810043,343.925232 169.933945,343.933441 169.653137,343.950775 
	C169.184937,344.287170 168.997528,344.606201 168.810120,344.925262 
	C168.810120,344.925262 168.933990,344.933502 168.653198,344.950806 
	C168.184982,345.287170 167.997559,345.606232 167.810150,345.925293 
	C167.810150,345.925293 167.934006,345.933502 167.653214,345.950836 
	C167.185028,346.287231 166.997635,346.606293 166.810242,346.925354 
	C166.810257,346.925354 166.934052,346.933533 166.653259,346.950928 
	C166.185135,347.287384 165.997803,347.606476 165.810486,347.925568 
	C165.810486,347.925568 165.934189,347.933716 165.653442,347.951111 
	C165.185410,348.287567 164.998138,348.606659 164.810867,348.925720 
	C164.810867,348.925720 164.934341,348.933807 164.653625,348.951324 
	C164.185730,349.287903 163.998535,349.606964 163.811340,349.926025 
	C163.811340,349.926025 163.934631,349.934082 163.653946,349.951630 
	C163.186066,350.288177 162.998886,350.607208 162.811707,350.926239 
	C162.811722,350.926239 162.934814,350.934357 162.654175,350.951904 
	C162.186325,351.288452 161.999130,351.607422 161.811920,351.926392 
	C161.811920,351.926392 161.934952,351.934479 161.654297,351.952026 
	C161.186249,352.288483 160.998886,352.607391 160.811523,352.926331 
	C160.811523,352.926331 160.897964,352.916443 160.573242,353.019775 
	C160.463623,353.845978 160.678726,354.568878 160.893829,355.291748 
	C166.154358,360.677216 171.445236,366.033600 176.649994,371.472382 
	C177.703323,372.573059 178.431046,373.985321 178.964142,375.720917 
	C178.432526,376.470398 178.245636,376.752930 178.058762,377.035431 
	C178.058762,377.035431 178.001373,377.006195 177.784439,377.115356 
	C177.277618,377.414398 177.110413,377.681183 177.065872,378.024841 
	C177.065872,378.024841 177.005051,378.004913 176.786163,378.114624 
	C176.277542,378.414307 176.110367,378.681061 176.065750,379.024658 
	C176.065750,379.024658 176.004974,379.004883 175.786057,379.114594 
	C175.277496,379.414276 175.110367,379.681000 175.065765,380.024506 
	C175.065765,380.024506 175.005066,380.004852 174.786072,380.114563 
	C174.277496,380.414276 174.110382,380.681000 174.065765,381.024475 
	C174.065765,381.024475 174.005066,381.004822 173.786072,381.114563 
	C173.277451,381.414276 173.110352,381.681000 173.065765,382.024506 
	C173.065765,382.024506 173.005051,382.004852 172.786072,382.114594 
	C172.277466,382.414368 172.110367,382.681122 172.065811,383.024628 
	C172.065811,383.024628 172.005066,383.004883 171.786118,383.114624 
	C171.277573,383.414459 171.110519,383.681274 171.066040,384.024811 
	C171.066040,384.024811 171.005142,384.004974 170.786240,384.114777 
	C170.277771,384.414734 170.110840,384.681580 170.066513,385.025116 
	C170.066513,385.025116 170.006104,385.002441 169.641266,385.135437 
	C168.553268,385.105682 167.830124,384.942963 167.106979,384.780243 
	C167.106979,384.780243 167.094162,384.903992 167.070038,384.628174 
	C166.732635,384.162903 166.419373,383.973480 166.106110,383.784058 
	C166.106110,383.784058 166.094406,383.906158 166.069611,383.629822 
	C165.731674,383.164062 165.418518,382.974670 165.105362,382.785248 
	C165.105362,382.785248 165.093658,382.906860 165.068970,382.630524 
	C164.731232,382.164673 164.418198,381.975159 164.105164,381.785614 
	C164.105164,381.785614 164.093475,381.907043 164.068878,381.630676 
	C163.731277,381.164734 163.418289,380.975159 163.105286,380.785583 
	C163.105286,380.785583 163.093613,380.907013 163.069061,380.630554 
	C162.731522,380.164520 162.418518,379.974976 162.105515,379.785431 
	C162.105515,379.785431 162.093796,379.906830 162.069366,379.630310 
	C161.731857,379.164246 161.418793,378.974762 161.105728,378.785248 
	C161.105728,378.785248 161.093979,378.906647 161.069580,378.630066 
	C160.732086,378.164032 160.418976,377.974579 160.105865,377.785156 
	C160.105865,377.785156 160.094086,377.906494 160.069702,377.629883 
	C159.732193,377.163910 159.419037,376.974518 159.105896,376.785126 
	C159.105896,376.785126 159.094131,376.906433 159.069763,376.629852 
	C158.732224,376.163879 158.419052,375.974487 158.105896,375.785095 
	C158.105896,375.785095 158.094131,375.906433 158.069763,375.629822 
	C157.732239,375.163849 157.419067,374.974457 157.105896,374.785065 
	C157.105911,374.785065 157.094147,374.906403 157.069794,374.629791 
	C156.732285,374.163788 156.419113,373.974396 156.105957,373.784973 
	C156.105957,373.784973 156.094177,373.906372 156.069885,373.629700 
	C155.732452,373.163635 155.419312,372.974213 155.106155,372.784821 
	C155.106155,372.784821 155.094467,372.906219 155.070190,372.629517 
	C154.732788,372.163330 154.419678,371.973877 154.106583,371.784393 
	C154.106583,371.784393 154.094742,371.905914 154.070587,371.629150 
	C153.733261,371.162933 153.420105,370.973450 153.106964,370.783966 
	C153.106964,370.783966 153.095169,370.905548 153.071045,370.628723 
	C152.733719,370.162445 152.420517,369.973053 152.107315,369.783661 
	C152.107315,369.783661 152.095459,369.905212 152.071442,369.628326 
	C151.734131,369.162170 151.420822,368.972931 151.107513,368.783691 
	C151.107513,368.783691 151.095734,368.905060 151.071777,368.628052 
	C150.734451,368.162018 150.421082,367.973022 150.107727,367.784027 
	C150.107727,367.784027 150.120728,367.871307 150.021881,367.532013 
	C148.178085,364.993988 146.887543,365.749084 145.800491,367.826935 
	C145.800491,367.826935 145.878189,367.869263 145.613724,367.909912 
	C145.160004,368.263947 144.970749,368.577362 144.781494,368.890778 
	C144.781494,368.890778 144.903488,368.902985 144.626465,368.926819 
	C144.160080,369.264069 143.970688,369.577484 143.781311,369.890869 
	C143.781311,369.890869 143.903595,369.902985 143.626587,369.926880 
	C143.160126,370.264160 142.970673,370.577545 142.781219,370.890930 
	C142.781235,370.890930 142.903641,370.902954 142.626617,370.926880 
	C142.160156,371.264160 141.970703,371.577576 141.781250,371.890961 
	C141.781250,371.890961 141.903702,371.902985 141.626678,371.926880 
	C141.160233,372.264221 140.970795,372.577637 140.781342,372.891022 
	C140.781342,372.891022 140.903717,372.903076 140.626709,372.927002 
	C140.160324,373.264374 139.970917,373.577820 139.781525,373.891235 
	C139.781525,373.891235 139.903870,373.903290 139.626892,373.927246 
	C139.160583,374.264618 138.971252,374.578064 138.781921,374.891510 
	C138.781937,374.891510 138.904099,374.903473 138.627167,374.927490 
	C138.160934,375.264923 137.971649,375.578339 137.782379,375.891785 
	C137.782379,375.891785 137.904373,375.903778 137.627472,375.927795 
	C137.161316,376.265259 136.972046,376.578674 136.782776,376.892090 
	C136.782776,376.892090 136.904617,376.904083 136.627747,376.928101 
	C136.161575,377.265503 135.972275,377.578888 135.782990,377.892303 
	C135.782990,377.892303 135.904846,377.904236 135.627945,377.928253 
	C135.161728,378.265656 134.972397,378.579010 134.783081,378.892395 
	C134.783081,378.892395 134.904907,378.904327 134.628021,378.928345 
	C134.161789,379.265686 133.972458,379.579041 133.783127,379.892395 
	C133.783127,379.892395 133.904922,379.904327 133.628036,379.928345 
	C133.161850,380.265747 132.972549,380.579132 132.783249,380.892487 
	C132.783249,380.892487 132.904968,380.904419 132.628113,380.928467 
	C132.161957,381.265869 131.972656,381.579254 131.783356,381.892609 
	C131.783371,381.892609 131.905136,381.904510 131.628326,381.928589 
	C131.162109,382.266022 130.972702,382.579315 130.783295,382.892609 
	C130.783279,382.892609 130.905106,382.904541 130.628311,382.928558 
	C130.161835,383.265717 129.972168,383.578888 129.782486,383.892029 
	C129.782486,383.892029 129.904663,383.904083 129.627838,383.928040 
	C129.161102,384.265045 128.971176,384.578125 128.781250,384.891174 
	C128.781250,384.891174 128.905060,384.902924 128.529846,384.977417 
	C127.424820,385.056000 126.694992,385.060120 125.965164,385.064240 
	C125.965164,385.064240 125.992401,385.003876 125.882187,384.786896 
	C125.582710,384.280884 125.316772,384.114136 124.974152,384.069672 
	C124.974152,384.069672 124.993385,384.006958 124.882828,383.788330 
	C124.582901,383.280762 124.316917,383.113983 123.974312,383.069366 
	C123.974312,383.069366 123.993477,383.006775 123.882942,382.788147 
	C123.582962,382.280640 123.316956,382.113922 122.974388,382.069305 
	C122.974388,382.069305 122.993507,382.006775 122.882965,381.788147 
	C122.582947,381.280701 122.316933,381.113953 121.974403,381.069305 
	C121.974403,381.069305 121.993500,381.006805 121.882965,380.788147 
	C121.582947,380.280701 121.316933,380.113953 120.974396,380.069305 
	C120.974396,380.069305 120.993484,380.006775 120.882957,379.788147 
	C120.582924,379.280670 120.316887,379.113953 119.974319,379.069366 
	C119.974319,379.069366 119.993484,379.006805 119.882927,378.788147 
	C119.582794,378.280640 119.316704,378.113953 118.974083,378.069458 
	C118.974083,378.069458 118.993408,378.006897 118.882843,377.788269 
	C118.582642,377.280762 118.316475,377.114105 117.973778,377.069702 
	C117.973778,377.069702 117.997810,377.007935 117.876129,376.778870 
	C117.466759,376.366608 117.179062,376.183411 116.891357,376.000244 
z"/>
<path fill="#FFFFFF" opacity="1.000000" stroke="none" 
	d="
M156.757507,158.952026 
	C156.633179,166.925995 156.334244,174.902664 156.458481,182.872757 
	C156.520203,186.832382 155.057251,188.298203 151.193314,188.035080 
	C148.048813,187.820938 144.878128,187.991547 140.530472,187.991547 
	C140.530472,178.479279 140.530472,169.098907 140.294922,158.922516 
	C130.617935,157.998276 121.176521,157.870056 111.735107,157.741852 
	C111.408409,152.527863 111.081703,147.313889 110.726585,141.646408 
	C120.946976,141.646408 130.363754,141.646408 140.370300,141.646408 
	C140.370300,131.699814 140.370300,122.151688 140.370300,112.308372 
	C145.867340,112.308372 150.772064,112.308372 156.304031,112.308372 
	C156.304031,121.875618 156.304031,131.404846 156.304031,141.525543 
	C166.441254,141.525543 175.978760,141.525543 185.740997,141.525543 
	C185.740997,147.069656 185.740997,152.008881 185.030502,157.211243 
	C176.338806,157.444946 168.356720,157.349335 160.377350,157.456573 
	C159.164261,157.472870 157.963806,158.430038 156.757507,158.952026 
z"/>
<path fill="#E1890A" opacity="1.000000" stroke="none" 
	d="
M111.705452,158.021545 
	C121.176521,157.870056 130.617935,157.998276 140.150925,158.539246 
	C130.720261,158.735077 121.198029,158.518158 111.705452,158.021545 
z"/>
<path fill="#E1890A" opacity="1.000000" stroke="none" 
	d="
M157.242477,158.965057 
	C157.963806,158.430038 159.164261,157.472870 160.377350,157.456573 
	C168.356720,157.349335 176.338806,157.444946 184.793518,157.608124 
	C184.115952,158.162048 182.969177,158.931992 181.813141,158.946182 
	C173.785645,159.044693 165.756241,158.986221 157.242477,158.965057 
z"/>
<path fill="#E4911A" opacity="1.000000" stroke="none" 
	d="
M146.238800,367.877319 
	C146.887543,365.749084 148.178085,364.993988 150.060532,367.510712 
	C149.024384,367.861694 147.850754,367.894714 146.238800,367.877319 
z"/>
<path fill="#E4911A" opacity="1.000000" stroke="none" 
	d="
M167.197098,385.083496 
	C167.830124,384.942963 168.553268,385.105682 169.654968,385.164612 
	C169.118073,385.169495 168.202652,385.278107 167.197098,385.083496 
z"/>
<path fill="#E4911A" opacity="1.000000" stroke="none" 
	d="
M126.019333,385.361603 
	C126.694992,385.060120 127.424820,385.056000 128.523132,384.915588 
	C127.952263,385.072540 127.012886,385.365753 126.019333,385.361603 
z"/>
<path fill="#E4911A" opacity="1.000000" stroke="none" 
	d="
M116.782005,376.168518 
	C117.179062,376.183411 117.466759,376.366608 117.846420,376.793518 
	C117.516472,376.803772 117.094566,376.570312 116.782005,376.168518 
z"/>
<path fill="#E4911A" opacity="1.000000" stroke="none" 
	d="
M178.272598,377.025970 
	C178.245636,376.752930 178.432526,376.470398 178.862701,376.092865 
	C178.899475,376.337372 178.692947,376.676941 178.272598,377.025970 
z"/>
<path fill="#E98E0A" opacity="1.000000" stroke="none" 
	d="
M160.919525,354.882751 
	C160.678726,354.568878 160.463623,353.845978 160.556625,352.979584 
	C160.891556,353.381958 160.918381,353.927856 160.919525,354.882751 
z"/>
<path fill="#E4911A" opacity="1.000000" stroke="none" 
	d="
M134.043137,379.794189 
	C133.972458,379.579041 134.161789,379.265686 134.621460,378.867493 
	C134.695587,379.087067 134.499374,379.391510 134.043137,379.794189 
z"/>
<path fill="#E4911A" opacity="1.000000" stroke="none" 
	d="
M132.043335,381.794312 
	C131.972656,381.579254 132.161957,381.265869 132.621613,380.867645 
	C132.695740,381.087189 132.499527,381.391632 132.043335,381.794312 
z"/>
<path fill="#E4911A" opacity="1.000000" stroke="none" 
	d="
M122.083313,381.274475 
	C122.316933,381.113953 122.582947,381.280701 122.851685,381.797668 
	C122.630180,381.917511 122.383942,381.735443 122.083313,381.274475 
z"/>
<path fill="#E4911A" opacity="1.000000" stroke="none" 
	d="
M174.271683,380.915588 
	C174.110382,380.681000 174.277496,380.414276 174.795898,380.144928 
	C174.916748,380.367554 174.734375,380.614594 174.271683,380.915588 
z"/>
<path fill="#E4911A" opacity="1.000000" stroke="none" 
	d="
M162.204224,380.045013 
	C162.418518,379.974976 162.731522,380.164520 163.129700,380.624146 
	C162.910904,380.697662 162.606918,380.501129 162.204224,380.045013 
z"/>
<path fill="#E4911A" opacity="1.000000" stroke="none" 
	d="
M133.043243,380.794250 
	C132.972549,380.579132 133.161850,380.265747 133.621490,379.867554 
	C133.695648,380.087128 133.499435,380.391541 133.043243,380.794250 
z"/>
<path fill="#E4911A" opacity="1.000000" stroke="none" 
	d="
M121.083313,380.274475 
	C121.316933,380.113953 121.582947,380.280701 121.851700,380.797638 
	C121.630173,380.917542 121.383919,380.735504 121.083313,380.274475 
z"/>
<path fill="#E4911A" opacity="1.000000" stroke="none" 
	d="
M175.271667,379.915588 
	C175.110367,379.681000 175.277496,379.414276 175.795959,379.144958 
	C175.916672,379.367523 175.734268,379.614502 175.271667,379.915588 
z"/>
<path fill="#E4911A" opacity="1.000000" stroke="none" 
	d="
M161.204407,379.044830 
	C161.418793,378.974762 161.731857,379.164246 162.130005,379.623901 
	C161.911072,379.697479 161.607086,379.500946 161.204407,379.044830 
z"/>
<path fill="#E4911A" opacity="1.000000" stroke="none" 
	d="
M163.204086,381.045135 
	C163.418289,380.975159 163.731277,381.164734 164.129547,381.624329 
	C163.910828,381.697784 163.606857,381.501251 163.204086,381.045135 
z"/>
<path fill="#E4911A" opacity="1.000000" stroke="none" 
	d="
M120.083275,379.274536 
	C120.316887,379.113953 120.582924,379.280670 120.851692,379.797668 
	C120.630188,379.917542 120.383949,379.735504 120.083275,379.274536 
z"/>
<path fill="#E4911A" opacity="1.000000" stroke="none" 
	d="
M176.271652,378.915649 
	C176.110367,378.681061 176.277542,378.414307 176.796143,378.145050 
	C176.916748,378.367554 176.734253,378.614532 176.271652,378.915649 
z"/>
<path fill="#E4911A" opacity="1.000000" stroke="none" 
	d="
M160.204498,378.044769 
	C160.418976,377.974579 160.732086,378.164032 161.130219,378.623627 
	C160.911209,378.697327 160.607178,378.500854 160.204498,378.044769 
z"/>
<path fill="#E4911A" opacity="1.000000" stroke="none" 
	d="
M135.043091,378.794128 
	C134.972397,378.579010 135.161728,378.265656 135.621384,377.867371 
	C135.695511,378.086945 135.499313,378.391418 135.043091,378.794128 
z"/>
<path fill="#E4911A" opacity="1.000000" stroke="none" 
	d="
M119.083122,378.274597 
	C119.316704,378.113953 119.582794,378.280640 119.851631,378.797668 
	C119.630119,378.917572 119.383873,378.735504 119.083122,378.274597 
z"/>
<path fill="#E4911A" opacity="1.000000" stroke="none" 
	d="
M177.271729,377.915802 
	C177.110413,377.681183 177.277618,377.414398 177.796417,377.145233 
	C177.916779,377.367645 177.734192,377.614563 177.271729,377.915802 
z"/>
<path fill="#E4911A" opacity="1.000000" stroke="none" 
	d="
M159.204529,377.044739 
	C159.419037,376.974518 159.732193,377.163910 160.130325,377.623474 
	C159.911270,377.697235 159.607224,377.500793 159.204529,377.044739 
z"/>
<path fill="#E4911A" opacity="1.000000" stroke="none" 
	d="
M136.043015,377.794067 
	C135.972275,377.578888 136.161575,377.265503 136.621216,376.867218 
	C136.695389,377.086823 136.499222,377.391357 136.043015,377.794067 
z"/>
<path fill="#E4911A" opacity="1.000000" stroke="none" 
	d="
M165.204315,383.044861 
	C165.418518,382.974670 165.731674,383.164062 166.130615,383.623322 
	C165.912018,383.696930 165.607651,383.500702 165.204315,383.044861 
z"/>
<path fill="#E98E0A" opacity="1.000000" stroke="none" 
	d="
M178.966873,334.856445 
	C178.856812,334.703430 178.915955,334.538818 179.190063,334.223602 
	C179.597260,334.440918 179.507614,334.698212 178.966873,334.856445 
z"/>
<path fill="#E98E0A" opacity="1.000000" stroke="none" 
	d="
M177.060989,336.814148 
	C176.995041,336.604431 177.182755,336.285217 177.646637,335.886047 
	C177.720062,336.105591 177.517349,336.405151 177.060989,336.814148 
z"/>
<path fill="#E98E0A" opacity="1.000000" stroke="none" 
	d="
M176.061417,337.814331 
	C175.995422,337.604553 176.182983,337.285370 176.646713,336.886444 
	C176.720261,337.106110 176.517624,337.405518 176.061417,337.814331 
z"/>
<path fill="#E4911A" opacity="1.000000" stroke="none" 
	d="
M170.272247,384.915985 
	C170.110840,384.681580 170.277771,384.414734 170.796143,384.145233 
	C170.916794,384.367615 170.734482,384.614594 170.272247,384.915985 
z"/>
<path fill="#E4911A" opacity="1.000000" stroke="none" 
	d="
M166.205017,384.043884 
	C166.419373,383.973480 166.732635,384.162903 167.131943,384.622131 
	C166.913284,384.695892 166.608597,384.499817 166.205017,384.043884 
z"/>
<path fill="#E4911A" opacity="1.000000" stroke="none" 
	d="
M129.041595,384.793274 
	C128.971176,384.578125 129.161102,384.265045 129.621338,383.866974 
	C129.695084,384.086456 129.498505,384.390930 129.041595,384.793274 
z"/>
<path fill="#E4911A" opacity="1.000000" stroke="none" 
	d="
M125.083069,384.274750 
	C125.316772,384.114136 125.582710,384.280884 125.851044,384.798126 
	C125.629639,384.917694 125.383598,384.735535 125.083069,384.274750 
z"/>
<path fill="#E4911A" opacity="1.000000" stroke="none" 
	d="
M171.271881,383.915771 
	C171.110519,383.681274 171.277573,383.414459 171.795975,383.145020 
	C171.916733,383.367523 171.734375,383.614563 171.271881,383.915771 
z"/>
<path fill="#E4911A" opacity="1.000000" stroke="none" 
	d="
M118.082962,377.274750 
	C118.316475,377.114105 118.582642,377.280762 118.851555,377.797913 
	C118.630165,377.917633 118.383942,377.735504 118.082962,377.274750 
z"/>
<path fill="#E4911A" opacity="1.000000" stroke="none" 
	d="
M130.042603,383.793945 
	C129.972168,383.578888 130.161835,383.265717 130.621826,382.867676 
	C130.695663,383.087158 130.499191,383.391510 130.042603,383.793945 
z"/>
<path fill="#E4911A" opacity="1.000000" stroke="none" 
	d="
M124.083221,383.274536 
	C124.316917,383.113983 124.582901,383.280762 124.851456,383.797913 
	C124.629974,383.917603 124.383812,383.735474 124.083221,383.274536 
z"/>
<path fill="#E4911A" opacity="1.000000" stroke="none" 
	d="
M172.271698,382.915649 
	C172.110367,382.681122 172.277466,382.414368 172.795898,382.144958 
	C172.916656,382.367493 172.734283,382.614532 172.271698,382.915649 
z"/>
<path fill="#E4911A" opacity="1.000000" stroke="none" 
	d="
M164.204041,382.045166 
	C164.418198,381.975159 164.731232,382.164673 165.129715,382.624146 
	C164.911072,382.697632 164.606995,382.501190 164.204041,382.045166 
z"/>
<path fill="#E4911A" opacity="1.000000" stroke="none" 
	d="
M131.043259,382.794312 
	C130.972702,382.579315 131.162109,382.266022 131.621811,381.867798 
	C131.695816,382.087250 131.499527,382.391632 131.043259,382.794312 
z"/>
<path fill="#E4911A" opacity="1.000000" stroke="none" 
	d="
M123.083282,382.274475 
	C123.316956,382.113922 123.582962,382.280640 123.851639,382.797699 
	C123.630104,382.917542 123.383873,382.735474 123.083282,382.274475 
z"/>
<path fill="#E4911A" opacity="1.000000" stroke="none" 
	d="
M173.271698,381.915588 
	C173.110352,381.681000 173.277451,381.414276 173.795868,381.144958 
	C173.916718,381.367493 173.734375,381.614532 173.271698,381.915588 
z"/>
<path fill="#E98E0A" opacity="1.000000" stroke="none" 
	d="
M162.064545,351.816467 
	C161.999130,351.607422 162.186325,351.288452 162.649673,350.890411 
	C162.722931,351.109741 162.520050,351.408142 162.064545,351.816467 
z"/>
<path fill="#E4911A" opacity="1.000000" stroke="none" 
	d="
M144.041702,369.793091 
	C143.970688,369.577484 144.160080,369.264069 144.619873,368.865906 
	C144.694229,369.085846 144.498154,369.390594 144.041702,369.793091 
z"/>
<path fill="#E4911A" opacity="1.000000" stroke="none" 
	d="
M150.205795,368.043945 
	C150.421082,367.973022 150.734451,368.162018 151.132370,368.621399 
	C150.912582,368.695831 150.608231,368.499817 150.205795,368.043945 
z"/>
<path fill="#E98E0A" opacity="1.000000" stroke="none" 
	d="
M174.061920,339.814697 
	C173.995941,339.604919 174.183365,339.285767 174.647034,338.887177 
	C174.720642,339.106934 174.517990,339.406128 174.061920,339.814697 
z"/>
<path fill="#E4911A" opacity="1.000000" stroke="none" 
	d="
M145.041870,368.793152 
	C144.970749,368.577362 145.160004,368.263947 145.619751,367.866089 
	C145.694260,368.086243 145.498245,368.390869 145.041870,368.793152 
z"/>
<path fill="#E98E0A" opacity="1.000000" stroke="none" 
	d="
M173.062286,340.814972 
	C172.996368,340.605316 173.183762,340.286163 173.647354,339.887573 
	C173.720901,340.107239 173.518234,340.406342 173.062286,340.814972 
z"/>
<path fill="#E98E0A" opacity="1.000000" stroke="none" 
	d="
M172.062653,341.815247 
	C171.996841,341.605713 172.184204,341.286560 172.647736,340.888000 
	C172.721222,341.107574 172.518524,341.406586 172.062653,341.815247 
z"/>
<path fill="#E98E0A" opacity="1.000000" stroke="none" 
	d="
M171.062927,342.815430 
	C170.997223,342.606018 171.184586,342.286926 171.648148,341.888428 
	C171.721558,342.107971 171.518799,342.406860 171.062927,342.815430 
z"/>
<path fill="#E98E0A" opacity="1.000000" stroke="none" 
	d="
M161.064240,352.816498 
	C160.998886,352.607391 161.186249,352.288483 161.649780,351.890533 
	C161.722961,352.109894 161.519974,352.408264 161.064240,352.816498 
z"/>
<path fill="#E4911A" opacity="1.000000" stroke="none" 
	d="
M151.205719,369.043640 
	C151.420822,368.972931 151.734131,369.162170 152.132172,369.621796 
	C151.912582,369.695953 151.608261,369.499756 151.205719,369.043640 
z"/>
<path fill="#E98E0A" opacity="1.000000" stroke="none" 
	d="
M163.064362,350.816284 
	C162.998886,350.607208 163.186066,350.288177 163.649384,349.890015 
	C163.722687,350.109344 163.519867,350.407837 163.064362,350.816284 
z"/>
<path fill="#E98E0A" opacity="1.000000" stroke="none" 
	d="
M164.064087,349.816101 
	C163.998535,349.606964 164.185730,349.287903 164.649078,348.889648 
	C164.722427,349.109009 164.519638,349.407593 164.064087,349.816101 
z"/>
<path fill="#E98E0A" opacity="1.000000" stroke="none" 
	d="
M165.063721,348.815918 
	C164.998138,348.606659 165.185410,348.287567 165.648849,347.889282 
	C165.722214,348.108765 165.519409,348.407440 165.063721,348.815918 
z"/>
<path fill="#E98E0A" opacity="1.000000" stroke="none" 
	d="
M166.063416,347.815765 
	C165.997803,347.606476 166.185135,347.287384 166.648682,346.889038 
	C166.722031,347.108551 166.519180,347.407257 166.063416,347.815765 
z"/>
<path fill="#E98E0A" opacity="1.000000" stroke="none" 
	d="
M167.063232,346.815643 
	C166.997635,346.606293 167.185028,346.287231 167.648621,345.888947 
	C167.721970,346.108459 167.519104,346.407196 167.063232,346.815643 
z"/>
<path fill="#E98E0A" opacity="1.000000" stroke="none" 
	d="
M168.063141,345.815613 
	C167.997559,345.606232 168.184982,345.287170 168.648605,344.888916 
	C168.721924,345.108429 168.519028,345.407166 168.063141,345.815613 
z"/>
<path fill="#E98E0A" opacity="1.000000" stroke="none" 
	d="
M169.063141,344.815582 
	C168.997528,344.606201 169.184937,344.287170 169.648560,343.888855 
	C169.721893,344.108368 169.519028,344.407135 169.063141,344.815582 
z"/>
<path fill="#E4911A" opacity="1.000000" stroke="none" 
	d="
M155.204712,373.044495 
	C155.419312,372.974213 155.732452,373.163635 156.130524,373.623291 
	C155.911392,373.697052 155.607330,373.500610 155.204712,373.044495 
z"/>
<path fill="#E98E0A" opacity="1.000000" stroke="none" 
	d="
M175.061646,338.814514 
	C174.995667,338.604706 175.183151,338.285522 175.646851,337.886841 
	C175.720413,338.106598 175.517776,338.405884 175.061646,338.814514 
z"/>
<path fill="#E4911A" opacity="1.000000" stroke="none" 
	d="
M158.204529,376.044739 
	C158.419052,375.974487 158.732224,376.163879 159.130371,376.623444 
	C158.911285,376.697174 158.607224,376.500763 158.204529,376.044739 
z"/>
<path fill="#E4911A" opacity="1.000000" stroke="none" 
	d="
M137.042877,376.793884 
	C136.972046,376.578674 137.161316,376.265259 137.620926,375.866882 
	C137.695160,376.086517 137.499069,376.391113 137.042877,376.793884 
z"/>
<path fill="#E98E0A" opacity="1.000000" stroke="none" 
	d="
M178.060791,335.813599 
	C177.994476,335.604187 178.182281,335.284698 178.645706,334.882782 
	C178.719193,335.101410 178.517075,335.402466 178.060791,335.813599 
z"/>
<path fill="#E4911A" opacity="1.000000" stroke="none" 
	d="
M157.204544,375.044678 
	C157.419067,374.974457 157.732239,375.163849 158.130371,375.623413 
	C157.911285,375.697174 157.607239,375.500732 157.204544,375.044678 
z"/>
<path fill="#E4911A" opacity="1.000000" stroke="none" 
	d="
M138.042572,375.793671 
	C137.971649,375.578339 138.160934,375.264923 138.620544,374.866455 
	C138.694824,375.086151 138.498795,375.390839 138.042572,375.793671 
z"/>
<path fill="#E4911A" opacity="1.000000" stroke="none" 
	d="
M156.204544,374.044617 
	C156.419113,373.974396 156.732285,374.163788 157.130402,374.623383 
	C156.911285,374.697144 156.607224,374.500702 156.204544,374.044617 
z"/>
<path fill="#E4911A" opacity="1.000000" stroke="none" 
	d="
M139.042206,374.793457 
	C138.971252,374.578064 139.160583,374.264618 139.620270,373.866119 
	C139.694580,374.085846 139.498535,374.390625 139.042206,374.793457 
z"/>
<path fill="#E98E0A" opacity="1.000000" stroke="none" 
	d="
M170.063080,343.815552 
	C169.997437,343.606171 170.184830,343.287079 170.648422,342.888733 
	C170.721786,343.108246 170.518967,343.407074 170.063080,343.815552 
z"/>
<path fill="#E4911A" opacity="1.000000" stroke="none" 
	d="
M140.041901,373.793274 
	C139.970917,373.577820 140.160324,373.264374 140.620071,372.865906 
	C140.694366,373.085663 140.498322,373.390503 140.041901,373.793274 
z"/>
<path fill="#E4911A" opacity="1.000000" stroke="none" 
	d="
M154.205017,372.044128 
	C154.419678,371.973877 154.732788,372.163330 155.130798,372.622986 
	C154.911621,372.696777 154.607544,372.500336 154.205017,372.044128 
z"/>
<path fill="#E4911A" opacity="1.000000" stroke="none" 
	d="
M141.041748,372.793152 
	C140.970795,372.577637 141.160233,372.264221 141.619995,371.865723 
	C141.694275,372.085510 141.498215,372.390381 141.041748,372.793152 
z"/>
<path fill="#E4911A" opacity="1.000000" stroke="none" 
	d="
M153.205322,371.043793 
	C153.420105,370.973450 153.733261,371.162933 154.131287,371.622681 
	C153.911987,371.696503 153.607834,371.500061 153.205322,371.043793 
z"/>
<path fill="#E4911A" opacity="1.000000" stroke="none" 
	d="
M142.041656,371.793060 
	C141.970703,371.577576 142.160156,371.264160 142.619965,370.865723 
	C142.694244,371.085510 142.498154,371.390320 142.041656,371.793060 
z"/>
<path fill="#E4911A" opacity="1.000000" stroke="none" 
	d="
M152.205566,370.043579 
	C152.420517,369.973053 152.733719,370.162445 153.131775,370.622192 
	C152.912354,370.696167 152.608078,370.499817 152.205566,370.043579 
z"/>
<path fill="#E4911A" opacity="1.000000" stroke="none" 
	d="
M143.041656,370.793091 
	C142.970673,370.577545 143.160126,370.264160 143.619965,369.865814 
	C143.694260,370.085632 143.498169,370.390442 143.041656,370.793091 
z"/>
<path fill="#FFFEFD" opacity="1.000000" stroke="none" 
	d="
M323.034912,157.366394 
	C323.034912,152.244720 323.034912,147.123032 323.034912,141.791412 
	C348.194977,141.791412 372.928986,141.791412 397.985870,141.791412 
	C397.985870,146.886246 397.985870,151.697800 397.506348,156.974304 
	C372.362823,157.414963 347.698883,157.390671 323.034912,157.366394 
z"/>
<path fill="#E1890A" opacity="1.000000" stroke="none" 
	d="
M323.248566,157.753326 
	C347.698883,157.390671 372.362823,157.414963 397.495667,157.402191 
	C396.695770,157.910278 395.428986,158.925446 394.158020,158.930679 
	C371.514923,159.024292 348.871246,159.005295 326.227875,158.956619 
	C325.305420,158.954636 324.384064,158.424393 323.248566,157.753326 
z"/>
<path fill="#7D7D7D" opacity="1.000000" stroke="none" 
	d="
M399.204712,334.546509 
	C398.617157,344.955841 398.617157,344.955872 388.631866,344.955841 
	C369.188171,344.955841 349.744446,344.955780 330.300751,344.955780 
	C328.360718,344.955780 326.420685,344.955811 323.882233,344.955811 
	C323.882233,341.452545 323.882233,338.670471 323.807251,335.435364 
	C323.869415,333.006531 324.006531,331.030731 324.169983,328.675354 
	C349.021790,328.675354 373.714844,328.675354 398.879578,328.675354 
	C398.970459,330.559998 399.056030,332.335297 399.204712,334.546509 
z"/>
<path fill="#7B7B7B" opacity="1.000000" stroke="none" 
	d="
M333.063232,362.304474 
	C355.153656,362.304779 376.752686,362.304779 399.055206,362.304779 
	C399.055206,367.269135 399.038483,371.697540 399.060547,376.125732 
	C399.078094,379.654266 396.448120,378.937042 394.431152,378.941742 
	C377.287445,378.981842 360.143616,378.965332 342.999817,378.965302 
	C338.006470,378.965271 333.009888,378.854919 328.021057,379.004517 
	C325.120422,379.091492 323.709656,378.263672 323.881287,375.074768 
	C324.094849,371.107239 323.932526,367.119507 323.932526,362.304169 
	C327.063965,362.304169 329.817902,362.304169 333.063232,362.304474 
z"/>
</svg>